<svg xmlns="http://www.w3.org/2000/svg" width="136" height="50" viewBox="-8 -8 136 50" fill="none" class="dex-logo"><rect x="-8" y="-8" width="136" height="50" rx="8" fill="#000000"/><path fill="#fff" d="M40.942 9.662c1.326.704 2.35 1.689 3.077 2.958.726 1.269 1.09 2.734 1.09 4.392 0 1.658-.362 3.106-1.09 4.383-.726 1.277-1.755 2.266-3.09 2.97-1.333.703-2.876 1.053-4.633 1.053H30V8.608h6.296c1.772 0 3.32.35 4.644 1.054h.002Zm-1.293 10.942c.861-.845 1.293-2.043 1.293-3.592s-.432-2.753-1.293-3.616c-.862-.862-2.068-1.293-3.617-1.293h-1.94v9.768h1.94c1.55 0 2.753-.422 3.617-1.269v.002ZM51.5 11.888v3.4h5.484v3.16h-5.483v3.686h6.2v3.28H47.407V8.608h10.296v3.28H51.5ZM81.571 22.256h5.364v3.16h-9.458V8.608h4.094v13.648ZM103.312 8.608l-5.818 11.254v5.554H93.4v-5.554L87.582 8.608h4.644l3.255 7.04 3.234-7.04h4.597ZM119.997 25.416h-4.094l-6.847-10.368v10.368h-4.095V8.608h4.095l6.847 10.415V8.608h4.094v16.808Z"></path><path fill="url(#star-big)" d="m75.267 25.396-3.6-8.384 3.6-8.428-7.835 4.01-7.838-4.006 3.604 8.424-3.604 8.38 7.838-4.55 7.835 4.554Z" class="rotation"></path><path fill="url(#dex-lines)" d="M21.885 17C21.885 8.152 14.76.94 5.946.79L5.67.784H3.883v7.301h1.786c4.915 0 8.915 4 8.915 8.915 0 4.916-3.992 8.909-8.903 8.915H3.883v7.301h1.786l.277-.006c8.814-.15 15.939-7.36 15.939-16.21ZM5.946 6.372V2.51a14.44 14.44 0 0 1 9.371 3.68L12.573 8.92a10.584 10.584 0 0 0-6.627-2.548Zm7.839 3.768 2.744-2.728a14.436 14.436 0 0 1 3.61 8.73h-3.873a10.568 10.568 0 0 0-2.481-6v-.002Zm2.479 7.72h3.873a14.446 14.446 0 0 1-3.818 8.963l-2.686-2.79a10.599 10.599 0 0 0 2.63-6.174ZM5.946 27.628a10.577 10.577 0 0 0 6.452-2.4l2.682 2.785a14.428 14.428 0 0 1-9.134 3.476v-3.863.002Z"></path><path fill="url(#star-small)" d="M7.755 20.874 5.975 17l1.78-3.874-3.874 1.78-3.873-1.778L1.79 17 .008 20.872l3.873-1.78 3.874 1.782Z" class="rotation-reverse"></path><defs><linearGradient id="star-big" x1="67.43" x2="67.43" y1="25.396" y2="8.584" gradientUnits="userSpaceOnUse"><stop stop-color="#8A2BE2"></stop><stop offset="1" stop-color="#FF69B4"></stop></linearGradient><linearGradient id="dex-lines" x1="12.885" x2="12.885" y1="1.074" y2="32.497" gradientUnits="userSpaceOnUse"><stop stop-color="#FF69B4"></stop><stop offset="1" stop-color="#8A2BE2"></stop></linearGradient><linearGradient id="star-small" x1="3.881" x2="3.881" y1="21.465" y2="13.361" gradientUnits="userSpaceOnUse"><stop stop-color="#8A2BE2"></stop><stop offset="1" stop-color="#FF69B4"></stop></linearGradient></defs></svg>